<?xml version="1.0" encoding="UTF-8" standalone="no"?>
<svg
   xmlns:ooo="http://xml.openoffice.org/svg/export"
   xmlns:dc="http://purl.org/dc/elements/1.1/"
   xmlns:cc="http://creativecommons.org/ns#"
   xmlns:rdf="http://www.w3.org/1999/02/22-rdf-syntax-ns#"
   xmlns:svg="http://www.w3.org/2000/svg"
   xmlns="http://www.w3.org/2000/svg"
   xmlns:sodipodi="http://sodipodi.sourceforge.net/DTD/sodipodi-0.dtd"
   xmlns:inkscape="http://www.inkscape.org/namespaces/inkscape"
   version="1.2"
   width="512"
   height="512"
   viewBox="0 0 13546.667 13546.666"
   preserveAspectRatio="xMidYMid"
   xml:space="preserve"
   id="svg1895"
   sodipodi:docname="Platform CO2 revisi.svg"
   inkscape:version="0.92.4 (f8dce91, 2019-08-02)"
   style="fill-rule:evenodd;stroke-width:28.22200012;stroke-linejoin:round"
   inkscape:export-filename="/home/fabien/Downloads/wetransfer-d14a73/logo/logo_export_web.png"
   inkscape:export-xdpi="96"
   inkscape:export-ydpi="96"><metadata
   id="metadata1899"><rdf:RDF><cc:Work
       rdf:about=""><dc:format>image/svg+xml</dc:format><dc:type
         rdf:resource="http://purl.org/dc/dcmitype/StillImage" /><dc:title></dc:title></cc:Work></rdf:RDF></metadata><sodipodi:namedview
   pagecolor="#ffffff"
   bordercolor="#666666"
   borderopacity="1"
   objecttolerance="10"
   gridtolerance="10"
   guidetolerance="10"
   inkscape:pageopacity="0"
   inkscape:pageshadow="2"
   inkscape:window-width="2560"
   inkscape:window-height="1376"
   id="namedview1897"
   showgrid="false"
   inkscape:zoom="0.8"
   inkscape:cx="792.55899"
   inkscape:cy="252.73843"
   inkscape:window-x="2048"
   inkscape:window-y="27"
   inkscape:window-maximized="1"
   inkscape:current-layer="svg1895"
   units="px" />
 <defs
   class="ClipPathGroup"
   id="defs1548">
  <clipPath
   id="presentation_clip_path"
   clipPathUnits="userSpaceOnUse">
   <rect
   x="0"
   y="0"
   width="2963"
   height="2370"
   id="rect1542" />
  </clipPath>
  <clipPath
   id="presentation_clip_path_shrink"
   clipPathUnits="userSpaceOnUse">
   <rect
   x="2"
   y="2"
   width="2958"
   height="2366"
   id="rect1545" />
  </clipPath>
 </defs>
 <defs
   class="TextShapeIndex"
   id="defs1552">
  <g
   ooo:slide="id1"
   ooo:id-list="id3 id4 id5 id6 id7 id8 id9 id10 id11 id12 id13 id14 id15 id16 id17 id18 id19 id20 id21 id22 id23 id24 id25 id26 id27 id28 id29 id30 id31 id32 id33 id34 id35 id36 id37 id38 id39 id40 id41 id42 id43 id44"
   id="g1550" />
 </defs>
 <defs
   class="EmbeddedBulletChars"
   id="defs1584">
  <g
   id="bullet-char-template-57356"
   transform="matrix(4.8828125e-4,0,0,-4.8828125e-4,0,0)">
   <path
   d="M 580,1141 1163,571 580,0 -4,571 Z"
   id="path1554"
   inkscape:connector-curvature="0" />
  </g>
  <g
   id="bullet-char-template-57354"
   transform="matrix(4.8828125e-4,0,0,-4.8828125e-4,0,0)">
   <path
   d="M 8,1128 H 1137 V 0 H 8 Z"
   id="path1557"
   inkscape:connector-curvature="0" />
  </g>
  <g
   id="bullet-char-template-10146"
   transform="matrix(4.8828125e-4,0,0,-4.8828125e-4,0,0)">
   <path
   d="M 174,0 602,739 174,1481 1456,739 Z M 1358,739 309,1346 659,739 Z"
   id="path1560"
   inkscape:connector-curvature="0" />
  </g>
  <g
   id="bullet-char-template-10132"
   transform="matrix(4.8828125e-4,0,0,-4.8828125e-4,0,0)">
   <path
   d="M 2015,739 1276,0 H 717 l 543,543 H 174 v 393 h 1086 l -543,545 h 557 z"
   id="path1563"
   inkscape:connector-curvature="0" />
  </g>
  <g
   id="bullet-char-template-10007"
   transform="matrix(4.8828125e-4,0,0,-4.8828125e-4,0,0)">
   <path
   d="m 0,-2 c -7,16 -16,29 -25,39 l 381,530 c -94,256 -141,385 -141,387 0,25 13,38 40,38 9,0 21,-2 34,-5 21,4 42,12 65,25 l 27,-13 111,-251 280,301 64,-25 24,25 c 21,-10 41,-24 62,-43 C 886,937 835,863 770,784 769,783 710,716 594,584 L 774,223 c 0,-27 -21,-55 -63,-84 l 16,-20 C 717,90 699,76 672,76 641,76 570,178 457,381 L 164,-76 c -22,-34 -53,-51 -92,-51 -42,0 -63,17 -64,51 -7,9 -10,24 -10,44 0,9 1,19 2,30 z"
   id="path1566"
   inkscape:connector-curvature="0" />
  </g>
  <g
   id="bullet-char-template-10004"
   transform="matrix(4.8828125e-4,0,0,-4.8828125e-4,0,0)">
   <path
   d="M 285,-33 C 182,-33 111,30 74,156 52,228 41,333 41,471 c 0,78 14,145 41,201 34,71 87,106 158,106 53,0 88,-31 106,-94 l 23,-176 c 8,-64 28,-97 59,-98 l 735,706 c 11,11 33,17 66,17 42,0 63,-15 63,-46 V 965 c 0,-36 -10,-64 -30,-84 L 442,47 C 390,-6 338,-33 285,-33 Z"
   id="path1569"
   inkscape:connector-curvature="0" />
  </g>
  <g
   id="bullet-char-template-9679"
   transform="matrix(4.8828125e-4,0,0,-4.8828125e-4,0,0)">
   <path
   d="M 813,0 C 632,0 489,54 383,161 276,268 223,411 223,592 c 0,181 53,324 160,431 106,107 249,161 430,161 179,0 323,-54 432,-161 108,-107 162,-251 162,-431 0,-180 -54,-324 -162,-431 C 1136,54 992,0 813,0 Z"
   id="path1572"
   inkscape:connector-curvature="0" />
  </g>
  <g
   id="bullet-char-template-8226"
   transform="matrix(4.8828125e-4,0,0,-4.8828125e-4,0,0)">
   <path
   d="m 346,457 c -73,0 -137,26 -191,78 -54,51 -81,114 -81,188 0,73 27,136 81,188 54,52 118,78 191,78 73,0 134,-26 185,-79 51,-51 77,-114 77,-187 0,-75 -25,-137 -76,-188 -50,-52 -112,-78 -186,-78 z"
   id="path1575"
   inkscape:connector-curvature="0" />
  </g>
  <g
   id="bullet-char-template-8211"
   transform="matrix(4.8828125e-4,0,0,-4.8828125e-4,0,0)">
   <path
   d="M -4,459 H 1135 V 606 H -4 Z"
   id="path1578"
   inkscape:connector-curvature="0" />
  </g>
  <g
   id="bullet-char-template-61548"
   transform="matrix(4.8828125e-4,0,0,-4.8828125e-4,0,0)">
   <path
   d="m 173,740 c 0,163 58,303 173,419 116,115 255,173 419,173 163,0 302,-58 418,-173 116,-116 174,-256 174,-419 0,-163 -58,-303 -174,-418 C 1067,206 928,148 765,148 601,148 462,206 346,322 231,437 173,577 173,740 Z"
   id="path1581"
   inkscape:connector-curvature="0" />
  </g>
 </defs>
 <defs
   class="TextEmbeddedBitmaps"
   id="defs1586" />
 <g
   id="g1591"
   transform="translate(0,11176.667)">
  <g
   id="id2"
   class="Master_Slide">
   <g
   id="bg-id2"
   class="Background" />
   <g
   id="bo-id2"
   class="BackgroundObjects" />
  </g>
 </g>
 <g
   class="SlideGroup"
   id="g1893"
   transform="matrix(14.862873,0,0,14.862873,-3894.9072,-10837.072)"
   inkscape:export-xdpi="96"
   inkscape:export-ydpi="96">
  <g
   id="g1891">
   <g
   id="container-id1">
    <g
   id="id1"
   class="Slide"
   clip-path="url(#presentation_clip_path)">
     <g
   class="Page"
   id="g1887">
      <g
   class="com.sun.star.drawing.ClosedBezierShape"
   id="g1598">
       <g
   id="id3">
        <rect
   class="BoundingBox"
   x="789"
   y="731"
   width="185"
   height="185"
   id="rect1593"
   style="fill:none;stroke:none" />
        <path
   d="m 806,768 c -29,41 -20,99 22,128 41,30 98,21 127,-20 30,-41 20,-99 -20,-128 -41,-30 -98,-20 -129,20 z"
   id="path1595"
   inkscape:connector-curvature="0"
   style="fill:#808080;stroke:none" />
       </g>
      </g>
      <g
   class="com.sun.star.drawing.ClosedBezierShape"
   id="g1605">
       <g
   id="id4">
        <rect
   class="BoundingBox"
   x="608"
   y="772"
   width="164"
   height="164"
   id="rect1600"
   style="fill:none;stroke:none" />
        <path
   d="m 623,805 c -26,36 -18,88 18,114 36,26 88,17 114,-19 26,-37 17,-87 -19,-113 -37,-26 -87,-18 -113,18 z"
   id="path1602"
   inkscape:connector-curvature="0"
   style="fill:#808080;stroke:none" />
       </g>
      </g>
      <g
   class="com.sun.star.drawing.ClosedBezierShape"
   id="g1612">
       <g
   id="id5">
        <rect
   class="BoundingBox"
   x="502"
   y="875"
   width="122"
   height="122"
   id="rect1607"
   style="fill:none;stroke:none" />
        <path
   d="m 513,901 c -19,27 -13,64 14,83 28,20 65,14 84,-13 20,-27 14,-64 -13,-85 -27,-19 -65,-13 -85,15 z"
   id="path1609"
   inkscape:connector-curvature="0"
   style="fill:#808080;stroke:none" />
       </g>
      </g>
      <g
   class="com.sun.star.drawing.ClosedBezierShape"
   id="g1619">
       <g
   id="id6">
        <rect
   class="BoundingBox"
   x="468"
   y="1008"
   width="98"
   height="99"
   id="rect1614"
   style="fill:none;stroke:none" />
        <path
   d="m 477,1029 c -15,21 -10,51 11,68 21,15 52,10 67,-12 16,-22 11,-51 -10,-67 -23,-15 -52,-10 -68,11 z"
   id="path1616"
   inkscape:connector-curvature="0"
   style="fill:#808080;stroke:none" />
       </g>
      </g>
      <g
   class="com.sun.star.drawing.ClosedBezierShape"
   id="g1626">
       <g
   id="id7">
        <rect
   class="BoundingBox"
   x="485"
   y="1141"
   width="77"
   height="76"
   id="rect1621"
   style="fill:none;stroke:none" />
        <path
   d="m 493,1157 c -13,17 -9,40 8,52 17,12 40,8 52,-8 13,-17 9,-40 -8,-52 -17,-13 -40,-10 -52,8 z"
   id="path1623"
   inkscape:connector-curvature="0"
   style="fill:#808080;stroke:none" />
       </g>
      </g>
      <g
   class="com.sun.star.drawing.ClosedBezierShape"
   id="g1633">
       <g
   id="id8">
        <rect
   class="BoundingBox"
   x="525"
   y="1251"
   width="66"
   height="65"
   id="rect1628"
   style="fill:none;stroke:none" />
        <path
   d="m 532,1264 c -11,15 -8,34 7,44 14,11 34,7 44,-7 11,-14 8,-34 -7,-44 -14,-10 -34,-7 -44,7 z"
   id="path1630"
   inkscape:connector-curvature="0"
   style="fill:#808080;stroke:none" />
       </g>
      </g>
      <g
   class="com.sun.star.drawing.ClosedBezierShape"
   id="g1640">
       <g
   id="id9">
        <rect
   class="BoundingBox"
   x="580"
   y="1324"
   width="53"
   height="54"
   id="rect1635"
   style="fill:none;stroke:none" />
        <path
   d="m 585,1336 c -8,11 -5,27 6,35 11,9 27,7 36,-6 8,-11 6,-27 -6,-35 -12,-9 -27,-7 -36,6 z"
   id="path1637"
   inkscape:connector-curvature="0"
   style="fill:#808080;stroke:none" />
       </g>
      </g>
      <g
   class="com.sun.star.drawing.ClosedBezierShape"
   id="g1647">
       <g
   id="id10">
        <rect
   class="BoundingBox"
   x="773"
   y="922"
   width="113"
   height="114"
   id="rect1642"
   style="fill:none;stroke:none" />
        <path
   d="m 783,946 c -18,25 -12,60 13,78 24,18 60,12 78,-13 18,-25 12,-60 -13,-78 -24,-18 -60,-13 -78,13 z"
   id="path1644"
   inkscape:connector-curvature="0"
   style="fill:#002685;stroke:none" />
       </g>
      </g>
      <g
   class="com.sun.star.drawing.ClosedBezierShape"
   id="g1654">
       <g
   id="id11">
        <rect
   class="BoundingBox"
   x="662"
   y="947"
   width="101"
   height="101"
   id="rect1649"
   style="fill:none;stroke:none" />
        <path
   d="m 671,967 c -16,23 -11,53 11,70 22,16 54,11 70,-12 16,-22 11,-53 -11,-69 -23,-16 -54,-11 -70,11 z"
   id="path1651"
   inkscape:connector-curvature="0"
   style="fill:#002685;stroke:none" />
       </g>
      </g>
      <g
   class="com.sun.star.drawing.ClosedBezierShape"
   id="g1661">
       <g
   id="id12">
        <rect
   class="BoundingBox"
   x="597"
   y="1010"
   width="75"
   height="75"
   id="rect1656"
   style="fill:none;stroke:none" />
        <path
   d="m 604,1025 c -12,17 -8,40 9,52 17,12 40,8 51,-8 12,-16 8,-40 -8,-52 -16,-12 -39,-8 -52,8 z"
   id="path1658"
   inkscape:connector-curvature="0"
   style="fill:#002685;stroke:none" />
       </g>
      </g>
      <g
   class="com.sun.star.drawing.ClosedBezierShape"
   id="g1668">
       <g
   id="id13">
        <rect
   class="BoundingBox"
   x="576"
   y="1091"
   width="62"
   height="62"
   id="rect1663"
   style="fill:none;stroke:none" />
        <path
   d="m 582,1104 c -9,13 -6,32 7,42 13,9 32,6 41,-7 10,-14 7,-32 -6,-41 -13,-10 -33,-7 -42,6 z"
   id="path1665"
   inkscape:connector-curvature="0"
   style="fill:#002685;stroke:none" />
       </g>
      </g>
      <g
   class="com.sun.star.drawing.ClosedBezierShape"
   id="g1675">
       <g
   id="id14">
        <rect
   class="BoundingBox"
   x="587"
   y="1172"
   width="48"
   height="48"
   id="rect1670"
   style="fill:none;stroke:none" />
        <path
   d="m 591,1182 c -7,10 -5,25 5,32 10,8 25,5 33,-5 7,-10 5,-25 -5,-33 -11,-7 -26,-5 -33,6 z"
   id="path1672"
   inkscape:connector-curvature="0"
   style="fill:#002685;stroke:none" />
       </g>
      </g>
      <g
   class="com.sun.star.drawing.ClosedBezierShape"
   id="g1682">
       <g
   id="id15">
        <rect
   class="BoundingBox"
   x="611"
   y="1239"
   width="40"
   height="40"
   id="rect1677"
   style="fill:none;stroke:none" />
        <path
   d="m 614,1246 c -6,9 -4,21 4,28 10,6 22,4 28,-5 6,-9 4,-21 -4,-27 -9,-6 -22,-4 -28,4 z"
   id="path1679"
   inkscape:connector-curvature="0"
   style="fill:#002685;stroke:none" />
       </g>
      </g>
      <g
   class="com.sun.star.drawing.ClosedBezierShape"
   id="g1689">
       <g
   id="id16">
        <rect
   class="BoundingBox"
   x="645"
   y="1277"
   width="34"
   height="33"
   id="rect1684"
   style="fill:none;stroke:none" />
        <path
   d="m 648,1284 c -6,6 -3,16 4,22 7,5 16,3 21,-4 6,-7 5,-17 -3,-22 -7,-5 -17,-3 -22,4 z"
   id="path1686"
   inkscape:connector-curvature="0"
   style="fill:#002685;stroke:none" />
       </g>
      </g>
      <g
   class="com.sun.star.drawing.ClosedBezierShape"
   id="g1696">
       <g
   id="id17">
        <rect
   class="BoundingBox"
   x="752"
   y="1049"
   width="64"
   height="64"
   id="rect1691"
   style="fill:none;stroke:none" />
        <path
   d="m 758,1062 c -10,15 -7,34 8,44 14,10 33,7 43,-7 10,-14 7,-34 -7,-44 -14,-10 -33,-7 -44,7 z"
   id="path1693"
   inkscape:connector-curvature="0"
   style="fill:#002685;stroke:none" />
       </g>
      </g>
      <g
   class="com.sun.star.drawing.ClosedBezierShape"
   id="g1703">
       <g
   id="id18">
        <rect
   class="BoundingBox"
   x="691"
   y="1062"
   width="57"
   height="58"
   id="rect1698"
   style="fill:none;stroke:none" />
        <path
   d="m 696,1074 c -9,12 -6,29 6,39 12,9 30,6 39,-7 9,-12 6,-29 -6,-38 -13,-9 -30,-6 -39,6 z"
   id="path1700"
   inkscape:connector-curvature="0"
   style="fill:#002685;stroke:none" />
       </g>
      </g>
      <g
   class="com.sun.star.drawing.ClosedBezierShape"
   id="g1710">
       <g
   id="id19">
        <rect
   class="BoundingBox"
   x="655"
   y="1098"
   width="43"
   height="43"
   id="rect1705"
   style="fill:none;stroke:none" />
        <path
   d="m 659,1107 c -7,9 -5,22 5,29 9,7 22,4 29,-5 6,-9 4,-22 -5,-28 -9,-8 -22,-6 -29,4 z"
   id="path1707"
   inkscape:connector-curvature="0"
   style="fill:#002685;stroke:none" />
       </g>
      </g>
      <g
   class="com.sun.star.drawing.ClosedBezierShape"
   id="g1717">
       <g
   id="id20">
        <rect
   class="BoundingBox"
   x="643"
   y="1143"
   width="35"
   height="35"
   id="rect1712"
   style="fill:none;stroke:none" />
        <path
   d="m 646,1150 c -5,7 -3,17 4,24 8,5 18,3 24,-4 5,-8 3,-18 -4,-24 -7,-5 -18,-3 -24,4 z"
   id="path1714"
   inkscape:connector-curvature="0"
   style="fill:#002685;stroke:none" />
       </g>
      </g>
      <g
   class="com.sun.star.drawing.ClosedBezierShape"
   id="g1724">
       <g
   id="id21">
        <rect
   class="BoundingBox"
   x="649"
   y="1188"
   width="28"
   height="28"
   id="rect1719"
   style="fill:none;stroke:none" />
        <path
   d="m 651,1194 c -4,6 -2,14 3,18 6,5 15,4 19,-3 4,-6 3,-14 -3,-18 -6,-5 -15,-2 -19,3 z"
   id="path1721"
   inkscape:connector-curvature="0"
   style="fill:#002685;stroke:none" />
       </g>
      </g>
      <g
   class="com.sun.star.drawing.ClosedBezierShape"
   id="g1731">
       <g
   id="id22">
        <rect
   class="BoundingBox"
   x="663"
   y="1225"
   width="24"
   height="24"
   id="rect1726"
   style="fill:none;stroke:none" />
        <path
   d="m 666,1231 c -5,4 -3,11 2,14 5,4 12,3 15,-2 4,-5 3,-11 -2,-16 -5,-3 -12,-2 -15,4 z"
   id="path1728"
   inkscape:connector-curvature="0"
   style="fill:#002685;stroke:none" />
       </g>
      </g>
      <g
   class="com.sun.star.drawing.ClosedBezierShape"
   id="g1738">
       <g
   id="id23">
        <rect
   class="BoundingBox"
   x="681"
   y="1250"
   width="20"
   height="20"
   id="rect1733"
   style="fill:none;stroke:none" />
        <path
   d="m 683,1254 c -3,4 -2,9 2,12 5,3 10,3 13,-2 2,-4 2,-9 -2,-12 -4,-4 -10,-2 -13,2 z"
   id="path1735"
   inkscape:connector-curvature="0"
   style="fill:#002685;stroke:none" />
       </g>
      </g>
      <g
   class="com.sun.star.drawing.ClosedBezierShape"
   id="g1745">
       <g
   id="id24">
        <rect
   class="BoundingBox"
   x="529"
   y="1534"
   width="108"
   height="108"
   id="rect1740"
   style="fill:none;stroke:none" />
        <path
   d="m 626,1617 c 17,-23 11,-56 -12,-73 -24,-17 -58,-12 -75,12 -17,23 -11,56 12,74 24,17 58,12 75,-13 z"
   id="path1742"
   inkscape:connector-curvature="0"
   style="fill:#002685;stroke:none" />
       </g>
      </g>
      <g
   class="com.sun.star.drawing.ClosedBezierShape"
   id="g1752">
       <g
   id="id25">
        <rect
   class="BoundingBox"
   x="647"
   y="1522"
   width="96"
   height="96"
   id="rect1747"
   style="fill:none;stroke:none" />
        <path
   d="m 733,1597 c 15,-21 11,-50 -10,-66 -21,-15 -51,-11 -67,11 -15,21 -10,50 11,66 21,15 51,10 66,-11 z"
   id="path1749"
   inkscape:connector-curvature="0"
   style="fill:#002685;stroke:none" />
       </g>
      </g>
      <g
   class="com.sun.star.drawing.ClosedBezierShape"
   id="g1759">
       <g
   id="id26">
        <rect
   class="BoundingBox"
   x="732"
   y="1486"
   width="72"
   height="72"
   id="rect1754"
   style="fill:none;stroke:none" />
        <path
   d="m 796,1541 c 11,-15 7,-37 -9,-48 -16,-12 -37,-8 -49,8 -11,15 -7,37 8,48 16,12 37,9 50,-8 z"
   id="path1756"
   inkscape:connector-curvature="0"
   style="fill:#002685;stroke:none" />
       </g>
      </g>
      <g
   class="com.sun.star.drawing.ClosedBezierShape"
   id="g1766">
       <g
   id="id27">
        <rect
   class="BoundingBox"
   x="766"
   y="1423"
   width="57"
   height="57"
   id="rect1761"
   style="fill:none;stroke:none" />
        <path
   d="m 817,1467 c 8,-13 6,-30 -7,-39 -13,-9 -30,-6 -39,6 -9,12 -6,31 6,40 12,8 31,6 40,-7 z"
   id="path1763"
   inkscape:connector-curvature="0"
   style="fill:#002685;stroke:none" />
       </g>
      </g>
      <g
   class="com.sun.star.drawing.ClosedBezierShape"
   id="g1773">
       <g
   id="id28">
        <rect
   class="BoundingBox"
   x="768"
   y="1359"
   width="46"
   height="45"
   id="rect1768"
   style="fill:none;stroke:none" />
        <path
   d="m 808,1393 c 7,-10 5,-23 -5,-30 -10,-7 -24,-5 -31,5 -7,9 -5,23 5,31 10,7 24,4 31,-6 z"
   id="path1770"
   inkscape:connector-curvature="0"
   style="fill:#002685;stroke:none" />
       </g>
      </g>
      <g
   class="com.sun.star.drawing.ClosedBezierShape"
   id="g1780">
       <g
   id="id29">
        <rect
   class="BoundingBox"
   x="751"
   y="1302"
   width="38"
   height="38"
   id="rect1775"
   style="fill:none;stroke:none" />
        <path
   d="m 784,1331 c 6,-8 4,-20 -4,-26 -9,-6 -20,-4 -26,4 -6,9 -4,21 4,26 8,6 20,4 26,-4 z"
   id="path1777"
   inkscape:connector-curvature="0"
   style="fill:#002685;stroke:none" />
       </g>
      </g>
      <g
   class="com.sun.star.drawing.ClosedBezierShape"
   id="g1787">
       <g
   id="id30">
        <rect
   class="BoundingBox"
   x="727"
   y="1265"
   width="32"
   height="33"
   id="rect1782"
   style="fill:none;stroke:none" />
        <path
   d="m 754,1289 c 5,-6 4,-15 -3,-20 -6,-5 -17,-3 -21,3 -5,7 -4,16 3,22 8,4 17,3 21,-5 z"
   id="path1784"
   inkscape:connector-curvature="0"
   style="fill:#002685;stroke:none" />
       </g>
      </g>
      <g
   class="com.sun.star.drawing.ClosedBezierShape"
   id="g1794">
       <g
   id="id31">
        <rect
   class="BoundingBox"
   x="580"
   y="1464"
   width="67"
   height="67"
   id="rect1789"
   style="fill:none;stroke:none" />
        <path
   d="m 639,1516 c 11,-15 8,-36 -7,-46 -14,-10 -35,-7 -46,7 -10,15 -7,36 8,46 15,11 35,7 45,-7 z"
   id="path1791"
   inkscape:connector-curvature="0"
   style="fill:#002685;stroke:none" />
       </g>
      </g>
      <g
   class="com.sun.star.drawing.ClosedBezierShape"
   id="g1801">
       <g
   id="id32">
        <rect
   class="BoundingBox"
   x="652"
   y="1457"
   width="60"
   height="60"
   id="rect1796"
   style="fill:none;stroke:none" />
        <path
   d="m 704,1503 c 10,-13 7,-32 -7,-41 -13,-9 -31,-6 -40,7 -9,12 -6,31 7,40 12,10 30,7 40,-6 z"
   id="path1798"
   inkscape:connector-curvature="0"
   style="fill:#002685;stroke:none" />
       </g>
      </g>
      <g
   class="com.sun.star.drawing.ClosedBezierShape"
   id="g1808">
       <g
   id="id33">
        <rect
   class="BoundingBox"
   x="704"
   y="1434"
   width="45"
   height="46"
   id="rect1803"
   style="fill:none;stroke:none" />
        <path
   d="m 743,1469 c 7,-9 5,-23 -5,-30 -10,-7 -23,-5 -30,5 -7,10 -5,23 4,30 10,7 24,5 31,-5 z"
   id="path1805"
   inkscape:connector-curvature="0"
   style="fill:#002685;stroke:none" />
       </g>
      </g>
      <g
   class="com.sun.star.drawing.ClosedBezierShape"
   id="g1815">
       <g
   id="id34">
        <rect
   class="BoundingBox"
   x="724"
   y="1396"
   width="36"
   height="36"
   id="rect1810"
   style="fill:none;stroke:none" />
        <path
   d="m 756,1424 c 5,-8 3,-18 -4,-25 -8,-5 -19,-3 -25,5 -5,8 -3,18 4,24 8,5 19,3 25,-4 z"
   id="path1812"
   inkscape:connector-curvature="0"
   style="fill:#002685;stroke:none" />
       </g>
      </g>
      <g
   class="com.sun.star.drawing.ClosedBezierShape"
   id="g1822">
       <g
   id="id35">
        <rect
   class="BoundingBox"
   x="726"
   y="1357"
   width="29"
   height="29"
   id="rect1817"
   style="fill:none;stroke:none" />
        <path
   d="m 751,1379 c 4,-6 3,-15 -3,-19 -6,-5 -15,-3 -20,3 -4,6 -3,15 3,19 6,4 15,3 20,-3 z"
   id="path1819"
   inkscape:connector-curvature="0"
   style="fill:#002685;stroke:none" />
       </g>
      </g>
      <g
   class="com.sun.star.drawing.ClosedBezierShape"
   id="g1829">
       <g
   id="id36">
        <rect
   class="BoundingBox"
   x="716"
   y="1322"
   width="25"
   height="24"
   id="rect1824"
   style="fill:none;stroke:none" />
        <path
   d="m 737,1340 c 4,-5 3,-13 -3,-16 -5,-4 -12,-3 -15,2 -5,6 -3,13 2,16 5,4 12,3 16,-2 z"
   id="path1826"
   inkscape:connector-curvature="0"
   style="fill:#002685;stroke:none" />
       </g>
      </g>
      <g
   class="com.sun.star.drawing.ClosedBezierShape"
   id="g1836">
       <g
   id="id37">
        <rect
   class="BoundingBox"
   x="700"
   y="1305"
   width="20"
   height="20"
   id="rect1831"
   style="fill:none;stroke:none" />
        <path
   d="m 717,1320 c 3,-5 2,-11 -2,-13 -4,-3 -10,-2 -13,2 -3,4 -2,10 2,13 5,3 10,2 13,-2 z"
   id="path1833"
   inkscape:connector-curvature="0"
   style="fill:#002685;stroke:none" />
       </g>
      </g>
      <g
   class="com.sun.star.drawing.ClosedBezierShape"
   id="g1843">
       <g
   id="id38">
        <rect
   class="BoundingBox"
   x="620"
   y="1418"
   width="38"
   height="39"
   id="rect1838"
   style="fill:none;stroke:none" />
        <path
   d="m 653,1447 c 6,-8 4,-19 -4,-25 -9,-6 -20,-4 -26,4 -6,8 -4,20 4,25 8,7 19,5 26,-4 z"
   id="path1840"
   inkscape:connector-curvature="0"
   style="fill:#002685;stroke:none" />
       </g>
      </g>
      <g
   class="com.sun.star.drawing.ClosedBezierShape"
   id="g1850">
       <g
   id="id39">
        <rect
   class="BoundingBox"
   x="660"
   y="1415"
   width="34"
   height="34"
   id="rect1845"
   style="fill:none;stroke:none" />
        <path
   d="m 690,1440 c 5,-7 3,-17 -4,-22 -7,-5 -17,-3 -23,4 -5,7 -3,17 5,23 7,5 17,3 22,-5 z"
   id="path1847"
   inkscape:connector-curvature="0"
   style="fill:#002685;stroke:none" />
       </g>
      </g>
      <g
   class="com.sun.star.drawing.ClosedBezierShape"
   id="g1857">
       <g
   id="id40">
        <rect
   class="BoundingBox"
   x="689"
   y="1403"
   width="26"
   height="26"
   id="rect1852"
   style="fill:none;stroke:none" />
        <path
   d="m 711,1423 c 4,-6 3,-14 -2,-18 -6,-4 -14,-2 -18,3 -3,5 -2,13 3,17 5,4 14,3 17,-2 z"
   id="path1854"
   inkscape:connector-curvature="0"
   style="fill:#002685;stroke:none" />
       </g>
      </g>
      <g
   class="com.sun.star.drawing.ClosedBezierShape"
   id="g1864">
       <g
   id="id41">
        <rect
   class="BoundingBox"
   x="701"
   y="1381"
   width="21"
   height="21"
   id="rect1859"
   style="fill:none;stroke:none" />
        <path
   d="m 719,1397 c 3,-5 3,-11 -2,-14 -4,-3 -11,-2 -14,2 -3,4 -2,11 2,14 5,3 11,2 14,-2 z"
   id="path1861"
   inkscape:connector-curvature="0"
   style="fill:#002685;stroke:none" />
       </g>
      </g>
      <g
   class="com.sun.star.drawing.ClosedBezierShape"
   id="g1871">
       <g
   id="id42">
        <rect
   class="BoundingBox"
   x="701"
   y="1360"
   width="17"
   height="17"
   id="rect1866"
   style="fill:none;stroke:none" />
        <path
   d="m 716,1372 c 2,-3 1,-9 -2,-11 -3,-2 -9,-2 -11,2 -3,4 -2,9 1,11 5,2 9,2 12,-2 z"
   id="path1868"
   inkscape:connector-curvature="0"
   style="fill:#002685;stroke:none" />
       </g>
      </g>
      <g
   class="com.sun.star.drawing.ClosedBezierShape"
   id="g1878">
       <g
   id="id43">
        <rect
   class="BoundingBox"
   x="696"
   y="1340"
   width="15"
   height="15"
   id="rect1873"
   style="fill:none;stroke:none" />
        <path
   d="m 708,1350 c 2,-4 1,-7 -2,-9 -2,-2 -7,-2 -9,1 -2,3 -1,8 1,9 3,3 8,2 10,-1 z"
   id="path1875"
   inkscape:connector-curvature="0"
   style="fill:#002685;stroke:none" />
       </g>
      </g>
      <g
   class="com.sun.star.drawing.ClosedBezierShape"
   id="g1885">
       <g
   id="id44">
        <rect
   class="BoundingBox"
   x="687"
   y="1328"
   width="13"
   height="12"
   id="rect1880"
   style="fill:none;stroke:none" />
        <path
   d="m 697,1336 c 3,-2 3,-5 -1,-7 -2,-1 -5,-1 -8,1 -1,3 -1,6 3,8 2,2 5,1 6,-2 z"
   id="path1882"
   inkscape:connector-curvature="0"
   style="fill:#002685;stroke:none" />
       </g>
      </g>
     </g>
    </g>
   </g>
  </g>
 </g>
</svg>